<svg xmlns="http://www.w3.org/2000/svg" xmlns:xlink="http://www.w3.org/1999/xlink" width="120" height="32" viewBox="0 0 120 32">
    <defs>
        <path id="a" d="M.048.032h119.86V32H.048z"/>
    </defs>
    <g fill="none" fill-rule="evenodd">
        <g>
            <mask id="b" fill="#fff">
                <use xlink:href="#a"/>
            </mask>
            <path fill="#A9AAA9" d="M112.355 0H7.557c-.29 0-.578 0-.868.002-.242.001-.483.006-.728.01-.528.013-1.061.046-1.588.14a5.292 5.292 0 0 0-1.507.502 5.11 5.11 0 0 0-2.217 2.24 5.335 5.335 0 0 0-.495 1.523c-.095.53-.129 1.066-.142 1.601-.007.246-.008.492-.012.737V25.247c.004.248.005.489.012.737.013.536.047 1.072.142 1.602a5.32 5.32 0 0 0 .495 1.524c.241.476.555.915.935 1.29.374.383.808.7 1.282.944.483.25.976.408 1.507.505.527.095 1.06.126 1.588.14.245.006.486.01.728.01l.868.001h104.798c.286 0 .575 0 .86-.002.241 0 .489-.003.73-.008a10.395 10.395 0 0 0 1.586-.141 5.367 5.367 0 0 0 1.512-.505 4.96 4.96 0 0 0 1.281-.943c.378-.376.693-.815.937-1.291a5.31 5.31 0 0 0 .49-1.524c.098-.53.13-1.066.148-1.602.003-.248.003-.489.003-.737.007-.291.007-.58.007-.875V7.629c0-.293 0-.583-.007-.874 0-.245 0-.491-.003-.737-.019-.535-.05-1.07-.147-1.601a5.325 5.325 0 0 0-.49-1.523 5.15 5.15 0 0 0-2.22-2.24 5.36 5.36 0 0 0-1.511-.501 10.196 10.196 0 0 0-1.586-.141c-.241-.004-.489-.009-.73-.01C112.93 0 112.64 0 112.355 0" mask="url(#b)"/>
        </g>
        <path fill="#000" d="M6.693 31.3c-.241 0-.477-.003-.716-.009a9.911 9.911 0 0 1-1.482-.13 4.618 4.618 0 0 1-1.313-.439 4.26 4.26 0 0 1-1.107-.812 4.262 4.262 0 0 1-.81-1.118 4.632 4.632 0 0 1-.43-1.326 10 10 0 0 1-.131-1.5c-.006-.168-.012-.73-.012-.73V6.756s.007-.554.012-.716c.01-.42.035-.965.13-1.498a4.61 4.61 0 0 1 .432-1.33A4.415 4.415 0 0 1 4.493.84 9.917 9.917 0 0 1 5.977.71L6.693.7h106.518l.723.01c.407.01.948.035 1.474.13.477.085.909.228 1.324.438a4.445 4.445 0 0 1 1.914 1.936c.205.41.343.843.424 1.32.092.504.12 1.023.138 1.51.002.226.002.47.002.711.006.3.006.586.006.874v16.743c0 .29 0 .574-.006.86 0 .26 0 .498-.003.744-.016.471-.045.989-.135 1.482-.083.49-.221.924-.428 1.336a4.38 4.38 0 0 1-.806 1.11 4.282 4.282 0 0 1-1.108.817 4.6 4.6 0 0 1-1.322.44 9.804 9.804 0 0 1-1.482.13c-.232.006-.475.009-.711.009l-.86.002L6.693 31.3"/>
        <path fill="#FFFFFE" d="M19.631 16.24c-.02-2.2 1.785-3.271 1.868-3.322-1.022-1.504-2.607-1.71-3.164-1.725-1.33-.142-2.62.804-3.3.804-.69 0-1.734-.79-2.859-.767-1.447.023-2.802.87-3.545 2.183-1.533 2.678-.39 6.615 1.079 8.78.734 1.06 1.593 2.245 2.717 2.203 1.099-.046 1.51-.708 2.836-.708 1.315 0 1.7.708 2.846.682 1.18-.02 1.923-1.066 2.633-2.136.848-1.216 1.19-2.413 1.203-2.474-.028-.01-2.292-.88-2.314-3.52M17.466 9.769c.591-.747.995-1.762.884-2.793-.856.038-1.926.598-2.543 1.328-.545.643-1.032 1.698-.907 2.689.962.073 1.95-.49 2.566-1.224M28.282 25.257h.836v-4.774h-.836v4.774zm-.082-5.67c0-.256.216-.454.5-.454.283 0 .5.198.5.453s-.217.453-.5.453c-.284 0-.5-.198-.5-.453zM30.207 21.654h.679v.572h.052c.174-.4.528-.642 1.065-.642.797 0 1.235.483 1.235 1.34v2.332h-.704v-2.154c0-.579-.25-.866-.77-.866s-.852.35-.852.913v2.107h-.705v-3.602M34.879 23.453c0 .764.356 1.225.953 1.225.594 0 .96-.467.96-1.222 0-.75-.37-1.223-.96-1.223-.593 0-.953.462-.953 1.22zm-.728 0c0-1.138.58-1.86 1.481-1.86.489 0 .901.236 1.095.633h.052v-1.978h.705v5.008h-.675v-.57h-.056c-.212.395-.63.63-1.12.63-.909 0-1.482-.722-1.482-1.863zM38.662 25.256h.771v-3.602h-.77v3.602zm-.115-4.668c0-.248.213-.436.5-.436.288 0 .5.188.5.436 0 .245-.212.434-.5.434-.287 0-.5-.19-.5-.434zM40.49 21.654h.678v.552h.053c.101-.354.497-.612.964-.612.103 0 .238.01.313.03v.7a1.97 1.97 0 0 0-.393-.042c-.534 0-.91.34-.91.847v2.127h-.705v-3.602M43.353 25.256h.77v-3.602h-.77v3.602zm-.115-4.668c0-.248.212-.436.5-.436.287 0 .5.188.5.436 0 .245-.213.434-.5.434-.288 0-.5-.19-.5-.434zM45.18 21.654h.678v.572h.053c.174-.4.528-.642 1.065-.642.796 0 1.235.483 1.235 1.34v2.332h-.704v-2.154c0-.579-.25-.866-.77-.866s-.852.35-.852.913v2.107h-.705v-3.602M30.167 12.742h2.973l-1.466-4.357h-.041l-1.466 4.357zm3.363 1.24h-3.752l-.9 2.684h-1.59l3.553-9.933h1.651l3.553 9.933H34.43l-.9-2.684zM42.206 13.046c0-1.467-.75-2.43-1.897-2.43-1.125 0-1.882.984-1.882 2.43 0 1.459.757 2.436 1.882 2.436 1.146 0 1.897-.956 1.897-2.436zm1.514 0c0 2.25-1.194 3.696-2.995 3.696-1.022 0-1.834-.461-2.258-1.267h-.034v3.588h-1.472V9.424h1.426v1.205h.026c.41-.778 1.283-1.281 2.285-1.281 1.821 0 3.022 1.454 3.022 3.698zM50.104 13.046c0-1.467-.75-2.43-1.897-2.43-1.125 0-1.882.984-1.882 2.43 0 1.459.757 2.436 1.882 2.436 1.146 0 1.897-.956 1.897-2.436zm1.514 0c0 2.25-1.194 3.696-2.995 3.696-1.022 0-1.834-.461-2.258-1.267h-.034v3.588H44.86V9.424h1.425v1.205h.027c.41-.778 1.283-1.281 2.285-1.281 1.82 0 3.022 1.454 3.022 3.698zM56.837 13.9c.11.984 1.057 1.631 2.353 1.631 1.242 0 2.135-.647 2.135-1.535 0-.771-.539-1.233-1.814-1.55l-1.276-.31c-1.807-.44-2.647-1.294-2.647-2.678 0-1.714 1.48-2.892 3.582-2.892 2.08 0 3.506 1.178 3.553 2.892h-1.487c-.088-.992-.9-1.59-2.087-1.59-1.187 0-1.998.606-1.998 1.487 0 .703.518 1.115 1.787 1.432l1.084.269c2.02.482 2.858 1.3 2.858 2.754 0 1.858-1.466 3.023-3.799 3.023-2.182 0-3.657-1.137-3.752-2.934h1.508M66.06 7.71v1.714h1.364v1.177h-1.365v3.993c0 .62.274.91.874.91.15 0 .389-.022.484-.035v1.17c-.164.042-.49.069-.818.069-1.453 0-2.02-.55-2.02-1.955V10.6h-1.043V9.424h1.043V7.71h1.48M73.52 13.046c0-1.564-.709-2.486-1.903-2.486-1.193 0-1.902.93-1.902 2.486 0 1.57.709 2.485 1.902 2.485 1.194 0 1.903-.916 1.903-2.485zm-5.306 0c0-2.28 1.33-3.712 3.403-3.712 2.08 0 3.404 1.432 3.404 3.712 0 2.285-1.316 3.71-3.404 3.71-2.086 0-3.403-1.425-3.403-3.71zM76.236 9.424h1.405v1.233h.033c.226-.82.88-1.309 1.726-1.309.212 0 .389.028.505.055v1.391c-.116-.048-.375-.09-.662-.09-.947 0-1.535.648-1.535 1.666v4.296h-1.472V9.424M81.717 12.378h3.587c-.034-1.11-.736-1.839-1.76-1.839-1.016 0-1.752.744-1.827 1.839zm4.979 2.161c-.198 1.315-1.466 2.218-3.09 2.218-2.087 0-3.383-1.412-3.383-3.677 0-2.272 1.303-3.746 3.322-3.746 1.985 0 3.233 1.377 3.233 3.573v.51H81.71v.09c0 1.239.771 2.051 1.93 2.051.819 0 1.46-.392 1.658-1.019h1.398zM87.768 10.368l.804-3.635h1.432l-.975 3.635h-1.261M91.447 13.046c0 1.487.751 2.436 1.896 2.436 1.133 0 1.89-.964 1.89-2.436 0-1.46-.757-2.43-1.89-2.43-1.145 0-1.896.956-1.896 2.43zm-1.507 0c0-2.238 1.22-3.698 3-3.698 1.031 0 1.843.482 2.252 1.28h.027V6.734h1.48v9.933h-1.432v-1.23h-.027c-.423.825-1.242 1.306-2.285 1.306-1.794 0-3.015-1.459-3.015-3.696zM102.628 13.954v-.557l-1.766.11c-.88.055-1.378.44-1.378 1.06 0 .634.518 1.047 1.31 1.047 1.03 0 1.834-.716 1.834-1.66zm-4.63.654c0-1.266.96-2.031 2.665-2.134l1.965-.11v-.551c0-.806-.524-1.26-1.418-1.26-.818 0-1.391.393-1.508 1.019h-1.377c.04-1.308 1.247-2.238 2.926-2.238 1.712 0 2.844.944 2.844 2.368v4.964h-1.412v-1.19h-.034c-.416.805-1.324 1.315-2.265 1.315-1.405 0-2.387-.881-2.387-2.183zM105.596 9.424H107v1.233h.034c.43-.868 1.153-1.315 2.258-1.315 1.583 0 2.49 1.026 2.49 2.684v4.64h-1.48v-4.35c0-1.088-.498-1.694-1.534-1.694-1.058 0-1.7.757-1.7 1.873v4.171h-1.472V9.424"/>
    </g>
</svg>
