<svg width="256" height="20" viewBox="0 0 256 20" xmlns="http://www.w3.org/2000/svg">
    <g fill="#F9F5EC" fill-rule="nonzero">
        <path d="M4.128 1.713c0-.158.06-.24.28-.29a6.176 6.176 0 0 1 1.196-.112c2.414 0 3.332 2.248 3.332 4.347 0 1.038-.363 1.95-.89 2.545-.516.616-.86.676-2.23.676-.928 0-1.369-.084-1.509-.103-.142-.05-.179-.115-.179-.297V1.71v.003zm130.505 14.58c.065 2.08.314 2.737.957 2.931a5.387 5.387 0 0 0 1.242.158c.127 0 .205.047.205.155 0 .145-.15.192-.444.192-1.42 0-2.409-.07-2.621-.07-.226 0-1.263.07-2.38.07-.245 0-.395-.02-.395-.192 0-.108.078-.155.192-.155.202 0 .648-.026 1.024-.158.61-.181.729-.915.729-3.221l.041-14.506c0-.972.057-1.257.262-1.257.205 0 .617.55.869.81.381.424 4.058 4.513 7.865 8.686 2.456 2.677 5.147 5.77 5.943 6.603l-.29-12.861c-.023-1.644-.19-2.199-.952-2.404a6.52 6.52 0 0 0-1.213-.12c-.192 0-.203-.088-.203-.182 0-.155.203-.182.493-.182 1.107 0 2.303.087 2.588.087.267 0 1.068-.087 2.088-.087.28 0 .446.027.446.182 0 .094-.096.181-.275.181-.117 0-.293 0-.589.071-.817.182-.918.731-.918 2.256l-.047 14.832c0 1.67-.067 1.796-.225 1.796-.197 0-.483-.279-1.815-1.617-.262-.253-3.82-3.987-6.44-6.88-2.867-3.142-5.663-6.348-6.461-7.263l.316 12.142.008.002zM109.97 7.94c0-3.957 0-4.657-.047-5.48-.05-.855-.252-1.254-1.071-1.433-.197-.05-.612-.071-.832-.071-.102 0-.208-.05-.208-.166 0-.145.135-.2.397-.2 1.118 0 2.663.087 2.795.087.166 0 5.08 0 5.666-.034.464-.03.874-.069 1.071-.118.127-.016.215-.14.337-.14.078 0 .104.121.104.232 0 .173-.12.48-.205 1.183-.02.266-.07 1.375-.106 1.68-.034.13-.083.287-.176.287-.15 0-.216-.129-.216-.34 0-.168-.018-.599-.137-.91-.166-.402-.423-.717-1.76-.86-.424-.052-3.113-.08-3.38-.08-.1 0-.15.08-.15.26V8.82c0 .168.005.274.15.274.317 0 3.35 0 3.934-.074.584-.042.939-.09 1.154-.355.174-.2.285-.326.381-.326.073 0 .117.053.117.21 0 .145-.117.574-.202 1.418a40.811 40.811 0 0 0-.107 1.62c0 .192 0 .48-.16.48-.128 0-.185-.112-.185-.225 0-.255 0-.521-.096-.842-.093-.342-.321-.786-1.286-.886-.671-.087-3.111-.14-3.534-.14l-.166 2.417c0 .86-.031 3.792 0 4.334.07 1.749.454 2.075 2.873 2.075.628 0 1.717 0 2.365-.276.638-.284.947-.797 1.125-1.836.042-.276.091-.368.226-.368s.135.203.135.368c0 .216-.202 1.938-.322 2.462-.166.65-.373.65-1.346.65-3.723 0-5.383-.145-6.104-.145-.046 0-.485.026-.988.026-.487.023-1.066.045-1.42.045-.299 0-.4-.045-.4-.192 0-.085.044-.156.19-.156.214 0 .51-.05.738-.105.506-.108.617-.65.716-1.394.13-1.049.13-3.06.13-5.493V7.935v.005zm-15.984 8.52c.095.918.282 2.34 1.327 2.693.721.229 1.362.229 1.613.229.12 0 .197.034.197.121 0 .155-.207.226-.51.226-.543 0-3.226-.07-4.131-.147-.579-.042-.693-.129-.693-.25.298-.205.314-.639.265-1.091L90.86 5.176l-6.13 13.175c-.524 1.105-.597 1.333-.812 1.333-.166 0-.296-.255-.778-1.157-.63-1.257-2.78-5.632-2.891-5.89-.216-.442-2.995-6.517-3.268-7.203l-1.084 11.757c-.02.403-.02.853-.02 1.284 0 .376.272.694.645.773.41.108.786.134.934.134.098 0 .205.047.205.121 0 .181-.156.226-.454.226-.915 0-2.108-.07-2.303-.07-.233 0-1.423.07-2.074.07-.241 0-.42-.045-.42-.226 0-.074.114-.121.251-.121.18 0 .384 0 .74-.074.813-.155.894-1.133.987-2.103L76.173.7c.055-.282.12-.46.265-.46.153 0 .254.1.384.378l7.561 15.928L91.643.645c.115-.226.195-.405.38-.405.184 0 .251.203.31.687l1.655 15.536-.002-.003zM54.917 13.18c0-1.363-.243-1.917-.578-2.654-.158-.41-3.48-5.988-4.354-7.292-.62-.939-1.226-1.575-1.683-1.88-.363-.255-.84-.397-1.06-.397-.13 0-.25-.05-.25-.182 0-.094.097-.181.335-.181.477 0 2.316.087 2.448.087.158 0 1.113-.087 2.075-.087.275 0 .316.087.316.181 0 .095-.143.132-.363.232-.207.094-.309.255-.309.457 0 .297.102.603.309.979.405.736 4.1 7.27 4.556 7.991.464-1.054 3.597-6.592 4.1-7.429.324-.541.423-.962.423-1.288 0-.363-.096-.64-.392-.713-.233-.079-.384-.134-.384-.265 0-.093.15-.148.4-.148.64 0 1.439.087 1.636.087.142 0 1.927-.087 2.39-.087.18 0 .314.055.314.148 0 .128-.124.218-.313.218-.265 0-.74.094-1.133.355-.493.294-.765.597-1.313 1.278-.814 1.02-4.273 6.971-4.72 8.068C57 11.56 57 12.347 57 13.179v2.174c0 .421 0 1.483.07 2.535.06.742.28 1.284 1.011 1.394.345.055.892.105 1.112.105.15 0 .19.071.19.155 0 .119-.112.192-.387.192-1.369 0-2.927-.07-3.047-.07-.13 0-1.677.07-2.427.07-.264 0-.4-.044-.4-.192 0-.084.06-.155.208-.155.234 0 .522-.05.752-.105.483-.108.719-.65.763-1.394.07-1.049.07-2.114.07-2.535V13.18h.002zM27.054 7.943c0-3.958 0-4.657-.052-5.48-.049-.855-.243-1.255-1.06-1.434-.203-.05-.607-.07-.846-.07-.09 0-.189-.05-.189-.166 0-.145.127-.2.394-.2 1.113 0 2.679.087 2.785.087.182 0 5.111 0 5.69-.035.469-.028.842-.068 1.04-.118.137-.016.238-.14.35-.14.082 0 .106.122.106.232 0 .174-.125.481-.208 1.184-.013.265-.064 1.375-.114 1.68-.03.129-.07.287-.17.287-.164 0-.193-.13-.193-.34 0-.168-.033-.6-.148-.91-.189-.402-.438-.717-1.773-.86-.41-.052-3.117-.081-3.392-.081-.08 0-.14.082-.14.26v6.985c0 .168.034.273.14.273.334 0 3.376 0 3.944-.073.596-.042.928-.09 1.162-.355.174-.2.275-.326.37-.326.065 0 .13.052.13.21 0 .145-.13.573-.207 1.417a22.6 22.6 0 0 0-.086 1.62c0 .192 0 .481-.184.481-.13 0-.16-.113-.16-.226 0-.255 0-.52-.102-.841-.106-.342-.327-.786-1.283-.886-.68-.087-3.133-.14-3.55-.14l-.18 2.417c0 .86-.023 3.792 0 4.334.084 1.748.454 2.074 2.879 2.074.638 0 1.727 0 2.368-.276.656-.284.94-.796 1.125-1.835.041-.276.093-.368.207-.368.156 0 .156.202.156.368 0 .215-.19 1.938-.324 2.461-.176.65-.381.65-1.336.65-3.744 0-5.398-.145-6.122-.145-.036 0-.464.026-.983.026-.482.024-1.055.045-1.436.045-.273 0-.392-.045-.392-.192 0-.084.057-.155.19-.155.243 0 .534-.05.744-.105.485-.108.625-.65.726-1.394.116-1.05.116-3.06.116-5.493V7.938l.008.005zM4.128 9.739C4.642 9.56 5.884 9.56 6.2 9.61c.594.071 1.214.153 2.064.736 1.904 1.35 2.399 3.532 2.399 5.065 0 2.848-2.165 3.587-3.506 3.587-.438 0-1.499-.05-2.168-.368-.765-.387-.765-.742-.848-1.988-.01-.374-.01-3.524-.01-5.473V9.74h-.003zm-1.994 2.656c0 2.432 0 4.444-.111 5.493-.107.742-.229 1.284-.721 1.394-.22.055-.519.105-.74.105-.15 0-.194.071-.194.155 0 .145.107.192.392.192.75 0 2.297-.07 2.417-.07.197 0 2.73.144 3.293.144 4.237 0 6.312-2.811 6.312-5.514 0-2.97-2.44-4.76-4.284-5.347 1.17-1.233 2.33-2.487 2.33-4.56 0-1.26-.891-3.791-4.944-3.791-1.149 0-2.108.086-2.707.086-.12 0-1.668-.086-2.785-.086C.106.596 0 .65 0 .796 0 .91.093.96.184.96c.23 0 .648.021.85.071.815.181 1.012.579 1.053 1.433.047.823.047 1.523.047 5.48v4.453-.003z"/>
        <ellipse cx="166.126" cy="10.12" rx="9.73" ry="9.88"/>
        <path d="M184.232 17.043c-2.411-2.193-3.008-5.067-3.008-7.46 0-1.689.57-4.64 2.783-6.882 1.49-1.512 3.752-2.698 7.58-2.698.993 0 2.385.076 3.604.302.944.176 1.74.329 2.536.379.272.026.324.126.324.276 0 .202-.075.505-.124 1.412-.05.831-.05 2.217-.075 2.595-.026.38-.076.53-.223.53-.174 0-.2-.177-.2-.53 0-.983-.397-2.016-1.045-2.571-.869-.758-2.783-1.436-4.971-1.436-3.306 0-4.847.983-5.718 1.84-1.815 1.765-2.238 4.008-2.238 6.58 0 4.815 3.654 9.225 8.972 9.225 1.865 0 3.33-.226 4.326-1.26.52-.554.845-1.664.92-2.116.05-.277.099-.38.25-.38.124 0 .173.177.173.38 0 .176-.298 2.369-.547 3.226-.15.479-.2.529-.646.731-.993.403-2.883.579-4.473.579-3.729 0-6.24-.934-8.202-2.722h.002zM214.925.005c5.593 0 9.768 3.58 9.768 9.451 0 5.872-3.926 10.309-9.916 10.309-6.81 0-9.644-5.37-9.644-9.906 0-4.084 2.933-9.856 9.792-9.856v.002zm.521 18.803c2.238 0 6.859-1.31 6.859-8.647 0-6.048-3.628-9.301-7.557-9.301-4.151 0-7.258 2.772-7.258 8.291 0 5.872 3.48 9.654 7.953 9.654l.003.003zM252.842 16.162c.098.907.272 2.32 1.343 2.672.72.226 1.366.226 1.615.226.125 0 .2.026.2.126 0 .15-.223.226-.521.226-.547 0-3.231-.076-4.152-.15-.57-.05-.695-.126-.695-.252 0-.1.05-.15.174-.176.124-.026.15-.455.098-.907L249.712 4.92h-.076l-6.088 13.107c-.521 1.11-.597 1.335-.82 1.335-.173 0-.298-.252-.77-1.16-.646-1.235-2.782-5.595-2.907-5.848-.223-.455-3.008-6.503-3.28-7.184h-.099l-.993 11.694c-.026.403-.026.857-.026 1.286 0 .379.273.705.646.781.423.1.796.126.944.126.098 0 .2.05.2.127 0 .176-.15.226-.449.226-.92 0-2.113-.077-2.31-.077-.224 0-1.416.077-2.088.077-.249 0-.423-.05-.423-.226 0-.077.125-.127.25-.127.199 0 .373 0 .746-.076.82-.15.895-1.133.993-2.093l1.79-16.433c.025-.276.124-.455.272-.455.148 0 .249.1.373.379l7.606 15.854L250.51.405c.099-.226.2-.402.374-.402.173 0 .249.202.298.68l1.665 15.476-.005.003z"/>
    </g>
</svg>
